<mxfile host="app.diagrams.net" agent="Mozilla/5.0 (Windows NT 10.0; Win64; x64; rv:135.0) Gecko/20100101 Firefox/135.0" version="26.0.16">
  <diagram name="Página-1" id="j6qPRUGXKQg1g1qp2nR6">
    <mxGraphModel dx="2084" dy="1103" grid="1" gridSize="10" guides="1" tooltips="1" connect="1" arrows="0" fold="1" page="1" pageScale="1" pageWidth="1100" pageHeight="850" math="0" shadow="0">
      <root>
        <mxCell id="0" />
        <mxCell id="1" parent="0" />
        <mxCell id="wzijG_nmXU8VHVW60wZD-7" value="" style="edgeStyle=orthogonalEdgeStyle;rounded=0;orthogonalLoop=1;jettySize=auto;html=1;exitX=0;exitY=0.5;exitDx=0;exitDy=0;entryX=1;entryY=0.5;entryDx=0;entryDy=0;" edge="1" parent="1" source="wzijG_nmXU8VHVW60wZD-1" target="wzijG_nmXU8VHVW60wZD-6">
          <mxGeometry relative="1" as="geometry">
            <mxPoint x="300" y="150" as="sourcePoint" />
            <Array as="points">
              <mxPoint x="490" y="70" />
            </Array>
          </mxGeometry>
        </mxCell>
        <mxCell id="wzijG_nmXU8VHVW60wZD-17" style="edgeStyle=orthogonalEdgeStyle;rounded=0;orthogonalLoop=1;jettySize=auto;html=1;exitX=0.572;exitY=1.001;exitDx=0;exitDy=0;entryX=0.5;entryY=0;entryDx=0;entryDy=0;exitPerimeter=0;" edge="1" parent="1" source="wzijG_nmXU8VHVW60wZD-1" target="wzijG_nmXU8VHVW60wZD-18">
          <mxGeometry relative="1" as="geometry">
            <mxPoint x="860" y="130" as="targetPoint" />
            <Array as="points">
              <mxPoint x="560" y="90" />
            </Array>
          </mxGeometry>
        </mxCell>
        <mxCell id="wzijG_nmXU8VHVW60wZD-1" value="&lt;div&gt;UML (Unified Modeling Language)&lt;/div&gt;" style="rounded=1;whiteSpace=wrap;html=1;" vertex="1" parent="1">
          <mxGeometry x="490" y="30" width="120" height="60" as="geometry" />
        </mxCell>
        <mxCell id="wzijG_nmXU8VHVW60wZD-12" style="edgeStyle=orthogonalEdgeStyle;rounded=0;orthogonalLoop=1;jettySize=auto;html=1;exitX=0;exitY=0.5;exitDx=0;exitDy=0;" edge="1" parent="1" source="wzijG_nmXU8VHVW60wZD-6">
          <mxGeometry relative="1" as="geometry">
            <mxPoint x="80" y="170" as="targetPoint" />
            <mxPoint x="140" y="30" as="sourcePoint" />
          </mxGeometry>
        </mxCell>
        <mxCell id="wzijG_nmXU8VHVW60wZD-15" style="edgeStyle=orthogonalEdgeStyle;rounded=0;orthogonalLoop=1;jettySize=auto;html=1;exitX=0.5;exitY=1;exitDx=0;exitDy=0;" edge="1" parent="1" source="wzijG_nmXU8VHVW60wZD-6" target="wzijG_nmXU8VHVW60wZD-16">
          <mxGeometry relative="1" as="geometry">
            <mxPoint x="260" y="170" as="targetPoint" />
            <mxPoint x="200" y="30" as="sourcePoint" />
          </mxGeometry>
        </mxCell>
        <mxCell id="wzijG_nmXU8VHVW60wZD-6" value="Usos" style="rounded=1;whiteSpace=wrap;html=1;" vertex="1" parent="1">
          <mxGeometry x="110" y="40" width="120" height="60" as="geometry" />
        </mxCell>
        <mxCell id="wzijG_nmXU8VHVW60wZD-14" value="Crear, viualizar,&amp;nbsp; especificar y&amp;nbsp; documentar sistemas" style="rounded=1;whiteSpace=wrap;html=1;" vertex="1" parent="1">
          <mxGeometry x="10" y="130" width="120" height="60" as="geometry" />
        </mxCell>
        <mxCell id="wzijG_nmXU8VHVW60wZD-16" value="Describir modelos con sus aspectos conceptuales" style="rounded=1;whiteSpace=wrap;html=1;" vertex="1" parent="1">
          <mxGeometry x="190" y="130" width="120" height="60" as="geometry" />
        </mxCell>
        <mxCell id="wzijG_nmXU8VHVW60wZD-19" style="edgeStyle=orthogonalEdgeStyle;rounded=0;orthogonalLoop=1;jettySize=auto;html=1;exitX=0.75;exitY=1;exitDx=0;exitDy=0;" edge="1" parent="1" source="wzijG_nmXU8VHVW60wZD-18" target="wzijG_nmXU8VHVW60wZD-20">
          <mxGeometry relative="1" as="geometry">
            <mxPoint x="960" y="220" as="targetPoint" />
          </mxGeometry>
        </mxCell>
        <mxCell id="wzijG_nmXU8VHVW60wZD-21" style="edgeStyle=orthogonalEdgeStyle;rounded=0;orthogonalLoop=1;jettySize=auto;html=1;exitX=0.25;exitY=1;exitDx=0;exitDy=0;" edge="1" parent="1" source="wzijG_nmXU8VHVW60wZD-18" target="wzijG_nmXU8VHVW60wZD-22">
          <mxGeometry relative="1" as="geometry">
            <mxPoint x="560" y="220" as="targetPoint" />
          </mxGeometry>
        </mxCell>
        <mxCell id="wzijG_nmXU8VHVW60wZD-18" value="&lt;div&gt;Tipos&lt;/div&gt;" style="rounded=1;whiteSpace=wrap;html=1;" vertex="1" parent="1">
          <mxGeometry x="500" y="130" width="120" height="60" as="geometry" />
        </mxCell>
        <mxCell id="wzijG_nmXU8VHVW60wZD-24" style="edgeStyle=orthogonalEdgeStyle;rounded=0;orthogonalLoop=1;jettySize=auto;html=1;exitX=1;exitY=0.5;exitDx=0;exitDy=0;" edge="1" parent="1" source="wzijG_nmXU8VHVW60wZD-20" target="wzijG_nmXU8VHVW60wZD-25">
          <mxGeometry relative="1" as="geometry">
            <mxPoint x="850" y="360" as="targetPoint" />
          </mxGeometry>
        </mxCell>
        <mxCell id="wzijG_nmXU8VHVW60wZD-28" style="edgeStyle=orthogonalEdgeStyle;rounded=0;orthogonalLoop=1;jettySize=auto;html=1;exitX=0;exitY=0.5;exitDx=0;exitDy=0;" edge="1" parent="1" source="wzijG_nmXU8VHVW60wZD-20" target="wzijG_nmXU8VHVW60wZD-29">
          <mxGeometry relative="1" as="geometry">
            <mxPoint x="550" y="360" as="targetPoint" />
          </mxGeometry>
        </mxCell>
        <mxCell id="wzijG_nmXU8VHVW60wZD-36" style="edgeStyle=orthogonalEdgeStyle;rounded=0;orthogonalLoop=1;jettySize=auto;html=1;entryX=0.5;entryY=0;entryDx=0;entryDy=0;" edge="1" parent="1" target="wzijG_nmXU8VHVW60wZD-33">
          <mxGeometry relative="1" as="geometry">
            <mxPoint x="840" y="290" as="sourcePoint" />
          </mxGeometry>
        </mxCell>
        <mxCell id="wzijG_nmXU8VHVW60wZD-97" style="edgeStyle=orthogonalEdgeStyle;rounded=0;orthogonalLoop=1;jettySize=auto;html=1;exitX=0;exitY=0.75;exitDx=0;exitDy=0;" edge="1" parent="1" source="wzijG_nmXU8VHVW60wZD-20">
          <mxGeometry relative="1" as="geometry">
            <mxPoint x="750" y="550" as="targetPoint" />
          </mxGeometry>
        </mxCell>
        <mxCell id="wzijG_nmXU8VHVW60wZD-20" value="Comportamiento" style="rounded=1;whiteSpace=wrap;html=1;" vertex="1" parent="1">
          <mxGeometry x="780" y="230" width="120" height="60" as="geometry" />
        </mxCell>
        <mxCell id="wzijG_nmXU8VHVW60wZD-53" style="edgeStyle=orthogonalEdgeStyle;rounded=0;orthogonalLoop=1;jettySize=auto;html=1;entryX=0.5;entryY=0;entryDx=0;entryDy=0;" edge="1" parent="1" source="wzijG_nmXU8VHVW60wZD-22" target="wzijG_nmXU8VHVW60wZD-48">
          <mxGeometry relative="1" as="geometry" />
        </mxCell>
        <mxCell id="wzijG_nmXU8VHVW60wZD-54" style="edgeStyle=orthogonalEdgeStyle;rounded=0;orthogonalLoop=1;jettySize=auto;html=1;exitX=0.5;exitY=1;exitDx=0;exitDy=0;entryX=0.5;entryY=0;entryDx=0;entryDy=0;" edge="1" parent="1" source="wzijG_nmXU8VHVW60wZD-22" target="wzijG_nmXU8VHVW60wZD-45">
          <mxGeometry relative="1" as="geometry" />
        </mxCell>
        <mxCell id="wzijG_nmXU8VHVW60wZD-55" style="edgeStyle=orthogonalEdgeStyle;rounded=0;orthogonalLoop=1;jettySize=auto;html=1;exitX=1;exitY=0.5;exitDx=0;exitDy=0;entryX=0.5;entryY=0;entryDx=0;entryDy=0;" edge="1" parent="1" source="wzijG_nmXU8VHVW60wZD-22" target="wzijG_nmXU8VHVW60wZD-51">
          <mxGeometry relative="1" as="geometry" />
        </mxCell>
        <mxCell id="wzijG_nmXU8VHVW60wZD-57" style="edgeStyle=orthogonalEdgeStyle;rounded=0;orthogonalLoop=1;jettySize=auto;html=1;exitX=0;exitY=0.75;exitDx=0;exitDy=0;endArrow=classic;startFill=0;entryX=0.5;entryY=0;entryDx=0;entryDy=0;endFill=1;" edge="1" parent="1" source="wzijG_nmXU8VHVW60wZD-22" target="wzijG_nmXU8VHVW60wZD-59">
          <mxGeometry relative="1" as="geometry">
            <mxPoint x="170" y="560.0000000000002" as="targetPoint" />
            <Array as="points">
              <mxPoint x="170" y="275" />
              <mxPoint x="170" y="425" />
              <mxPoint x="171" y="570" />
            </Array>
          </mxGeometry>
        </mxCell>
        <mxCell id="wzijG_nmXU8VHVW60wZD-22" value="Estructurado" style="rounded=1;whiteSpace=wrap;html=1;" vertex="1" parent="1">
          <mxGeometry x="185" y="230" width="120" height="60" as="geometry" />
        </mxCell>
        <mxCell id="wzijG_nmXU8VHVW60wZD-26" style="edgeStyle=orthogonalEdgeStyle;rounded=0;orthogonalLoop=1;jettySize=auto;html=1;" edge="1" parent="1" source="wzijG_nmXU8VHVW60wZD-25" target="wzijG_nmXU8VHVW60wZD-27">
          <mxGeometry relative="1" as="geometry">
            <mxPoint x="1020" y="410" as="targetPoint" />
          </mxGeometry>
        </mxCell>
        <mxCell id="wzijG_nmXU8VHVW60wZD-25" value="Colaboracion" style="rounded=1;whiteSpace=wrap;html=1;" vertex="1" parent="1">
          <mxGeometry x="940" y="320" width="140" height="60" as="geometry" />
        </mxCell>
        <mxCell id="wzijG_nmXU8VHVW60wZD-27" value="Un diagrama que muestra interacciones organizadas alrededor de los roles. A diferencia de los diagramas de secuencia, los diagramas de colaboración muestran explícitamente las relaciones de los roles." style="rounded=0;whiteSpace=wrap;html=1;fontSize=10;fontFamily=Times New Roman;" vertex="1" parent="1">
          <mxGeometry x="940" y="400" width="140" height="110" as="geometry" />
        </mxCell>
        <mxCell id="wzijG_nmXU8VHVW60wZD-30" style="edgeStyle=orthogonalEdgeStyle;rounded=0;orthogonalLoop=1;jettySize=auto;html=1;" edge="1" parent="1" source="wzijG_nmXU8VHVW60wZD-29" target="wzijG_nmXU8VHVW60wZD-31">
          <mxGeometry relative="1" as="geometry">
            <mxPoint x="660" y="410" as="targetPoint" />
          </mxGeometry>
        </mxCell>
        <mxCell id="wzijG_nmXU8VHVW60wZD-29" value="&lt;div&gt;Estado&lt;/div&gt;" style="rounded=1;whiteSpace=wrap;html=1;" vertex="1" parent="1">
          <mxGeometry x="600" y="320" width="120" height="60" as="geometry" />
        </mxCell>
        <mxCell id="wzijG_nmXU8VHVW60wZD-31" value="Los diagramas de máquina de estado son similares a los diagramas de actividad, aunque las anotaciones y el uso cambian un poco. Estos son muy útiles para describir el comportamiento de los objetos que actúan de manera diferente de acuerdo con el estado en que se encuentran en el momento." style="rounded=0;whiteSpace=wrap;html=1;fontSize=10;fontFamily=Times New Roman;" vertex="1" parent="1">
          <mxGeometry x="580" y="400" width="160" height="110" as="geometry" />
        </mxCell>
        <mxCell id="wzijG_nmXU8VHVW60wZD-32" style="edgeStyle=orthogonalEdgeStyle;rounded=0;orthogonalLoop=1;jettySize=auto;html=1;" edge="1" parent="1" source="wzijG_nmXU8VHVW60wZD-33" target="wzijG_nmXU8VHVW60wZD-34">
          <mxGeometry relative="1" as="geometry">
            <mxPoint x="850" y="410" as="targetPoint" />
          </mxGeometry>
        </mxCell>
        <mxCell id="wzijG_nmXU8VHVW60wZD-33" value="Actividades" style="rounded=1;whiteSpace=wrap;html=1;" vertex="1" parent="1">
          <mxGeometry x="770" y="320" width="140" height="60" as="geometry" />
        </mxCell>
        <mxCell id="wzijG_nmXU8VHVW60wZD-34" value="Representan los flujos de trabajo de forma gráfica. Pueden utilizarse para describir el flujo de trabajo empresarial o el flujo de trabajo operativo de cualquier componente de un sistema." style="rounded=0;whiteSpace=wrap;html=1;fontSize=10;fontFamily=Times New Roman;" vertex="1" parent="1">
          <mxGeometry x="770" y="400" width="140" height="110" as="geometry" />
        </mxCell>
        <mxCell id="wzijG_nmXU8VHVW60wZD-44" style="edgeStyle=orthogonalEdgeStyle;rounded=0;orthogonalLoop=1;jettySize=auto;html=1;" edge="1" parent="1" source="wzijG_nmXU8VHVW60wZD-45" target="wzijG_nmXU8VHVW60wZD-46">
          <mxGeometry relative="1" as="geometry">
            <mxPoint x="265" y="410" as="targetPoint" />
          </mxGeometry>
        </mxCell>
        <mxCell id="wzijG_nmXU8VHVW60wZD-45" value="Colaboracion" style="rounded=1;whiteSpace=wrap;html=1;" vertex="1" parent="1">
          <mxGeometry x="185" y="320" width="140" height="60" as="geometry" />
        </mxCell>
        <mxCell id="wzijG_nmXU8VHVW60wZD-46" value="Un diagrama que muestra interacciones organizadas alrededor de los roles. A diferencia de los diagramas de secuencia, los diagramas de colaboración muestran explícitamente las relaciones de los roles." style="rounded=0;whiteSpace=wrap;html=1;fontSize=10;fontFamily=Times New Roman;" vertex="1" parent="1">
          <mxGeometry x="185" y="400" width="140" height="110" as="geometry" />
        </mxCell>
        <mxCell id="wzijG_nmXU8VHVW60wZD-47" style="edgeStyle=orthogonalEdgeStyle;rounded=0;orthogonalLoop=1;jettySize=auto;html=1;" edge="1" parent="1" source="wzijG_nmXU8VHVW60wZD-48" target="wzijG_nmXU8VHVW60wZD-49">
          <mxGeometry relative="1" as="geometry">
            <mxPoint x="95" y="410" as="targetPoint" />
          </mxGeometry>
        </mxCell>
        <mxCell id="wzijG_nmXU8VHVW60wZD-48" value="Actividades" style="rounded=1;whiteSpace=wrap;html=1;" vertex="1" parent="1">
          <mxGeometry x="15" y="320" width="140" height="60" as="geometry" />
        </mxCell>
        <mxCell id="wzijG_nmXU8VHVW60wZD-49" value="Representan los flujos de trabajo de forma gráfica. Pueden utilizarse para describir el flujo de trabajo empresarial o el flujo de trabajo operativo de cualquier componente de un sistema." style="rounded=0;whiteSpace=wrap;html=1;fontSize=10;fontFamily=Times New Roman;" vertex="1" parent="1">
          <mxGeometry x="15" y="400" width="140" height="110" as="geometry" />
        </mxCell>
        <mxCell id="wzijG_nmXU8VHVW60wZD-50" style="edgeStyle=orthogonalEdgeStyle;rounded=0;orthogonalLoop=1;jettySize=auto;html=1;" edge="1" parent="1" source="wzijG_nmXU8VHVW60wZD-51" target="wzijG_nmXU8VHVW60wZD-52">
          <mxGeometry relative="1" as="geometry">
            <mxPoint x="435" y="410" as="targetPoint" />
          </mxGeometry>
        </mxCell>
        <mxCell id="wzijG_nmXU8VHVW60wZD-51" value="Colaboracion" style="rounded=1;whiteSpace=wrap;html=1;" vertex="1" parent="1">
          <mxGeometry x="355" y="320" width="140" height="60" as="geometry" />
        </mxCell>
        <mxCell id="wzijG_nmXU8VHVW60wZD-52" value="Un diagrama que muestra interacciones organizadas alrededor de los roles. A diferencia de los diagramas de secuencia, los diagramas de colaboración muestran explícitamente las relaciones de los roles." style="rounded=0;whiteSpace=wrap;html=1;fontSize=10;fontFamily=Times New Roman;" vertex="1" parent="1">
          <mxGeometry x="355" y="400" width="140" height="110" as="geometry" />
        </mxCell>
        <mxCell id="wzijG_nmXU8VHVW60wZD-61" style="edgeStyle=orthogonalEdgeStyle;rounded=0;orthogonalLoop=1;jettySize=auto;html=1;exitX=0;exitY=0.5;exitDx=0;exitDy=0;entryX=1;entryY=0.5;entryDx=0;entryDy=0;" edge="1" parent="1" source="wzijG_nmXU8VHVW60wZD-59" target="wzijG_nmXU8VHVW60wZD-60">
          <mxGeometry relative="1" as="geometry" />
        </mxCell>
        <mxCell id="wzijG_nmXU8VHVW60wZD-65" style="edgeStyle=orthogonalEdgeStyle;rounded=0;orthogonalLoop=1;jettySize=auto;html=1;exitX=0.056;exitY=1.027;exitDx=0;exitDy=0;entryX=0.5;entryY=0;entryDx=0;entryDy=0;exitPerimeter=0;" edge="1" parent="1" source="wzijG_nmXU8VHVW60wZD-59" target="wzijG_nmXU8VHVW60wZD-62">
          <mxGeometry relative="1" as="geometry">
            <Array as="points">
              <mxPoint x="117" y="650" />
              <mxPoint x="25" y="650" />
            </Array>
          </mxGeometry>
        </mxCell>
        <mxCell id="wzijG_nmXU8VHVW60wZD-69" style="edgeStyle=orthogonalEdgeStyle;rounded=0;orthogonalLoop=1;jettySize=auto;html=1;exitX=1;exitY=0.5;exitDx=0;exitDy=0;entryX=0;entryY=0.5;entryDx=0;entryDy=0;" edge="1" parent="1" source="wzijG_nmXU8VHVW60wZD-59" target="wzijG_nmXU8VHVW60wZD-68">
          <mxGeometry relative="1" as="geometry" />
        </mxCell>
        <mxCell id="wzijG_nmXU8VHVW60wZD-72" style="edgeStyle=orthogonalEdgeStyle;rounded=0;orthogonalLoop=1;jettySize=auto;html=1;exitX=0.5;exitY=1;exitDx=0;exitDy=0;entryX=0.5;entryY=0;entryDx=0;entryDy=0;" edge="1" parent="1" source="wzijG_nmXU8VHVW60wZD-59" target="wzijG_nmXU8VHVW60wZD-63">
          <mxGeometry relative="1" as="geometry" />
        </mxCell>
        <mxCell id="wzijG_nmXU8VHVW60wZD-59" value="&lt;div&gt;De clases&lt;/div&gt;" style="rounded=1;whiteSpace=wrap;html=1;" vertex="1" parent="1">
          <mxGeometry x="110" y="550" width="120" height="60" as="geometry" />
        </mxCell>
        <mxCell id="wzijG_nmXU8VHVW60wZD-60" value="Es un diagrama puramente orientado al modelo de programación orientado a objetos, ya que define las clases que se utilizarán cuando se pase a la fase de construcción y la manera en que se relacionan las mismas." style="rounded=0;whiteSpace=wrap;html=1;fontSize=10;fontFamily=Times New Roman;" vertex="1" parent="1">
          <mxGeometry x="-90" y="525" width="130" height="110" as="geometry" />
        </mxCell>
        <mxCell id="wzijG_nmXU8VHVW60wZD-66" style="edgeStyle=orthogonalEdgeStyle;rounded=0;orthogonalLoop=1;jettySize=auto;html=1;exitX=0.5;exitY=1;exitDx=0;exitDy=0;entryX=0.5;entryY=0;entryDx=0;entryDy=0;" edge="1" parent="1" source="wzijG_nmXU8VHVW60wZD-62" target="wzijG_nmXU8VHVW60wZD-67">
          <mxGeometry relative="1" as="geometry">
            <mxPoint x="304.90909090909076" y="620" as="targetPoint" />
          </mxGeometry>
        </mxCell>
        <mxCell id="wzijG_nmXU8VHVW60wZD-62" value="&lt;font size=&quot;1&quot;&gt;Atributos&lt;/font&gt;" style="ellipse;whiteSpace=wrap;html=1;" vertex="1" parent="1">
          <mxGeometry x="-20" y="670" width="90" height="35" as="geometry" />
        </mxCell>
        <mxCell id="wzijG_nmXU8VHVW60wZD-73" style="edgeStyle=orthogonalEdgeStyle;rounded=0;orthogonalLoop=1;jettySize=auto;html=1;exitX=0.5;exitY=1;exitDx=0;exitDy=0;entryX=0.5;entryY=0;entryDx=0;entryDy=0;" edge="1" parent="1" source="wzijG_nmXU8VHVW60wZD-63" target="wzijG_nmXU8VHVW60wZD-76">
          <mxGeometry relative="1" as="geometry">
            <mxPoint x="170.36363636363626" y="750" as="targetPoint" />
          </mxGeometry>
        </mxCell>
        <mxCell id="wzijG_nmXU8VHVW60wZD-63" value="Métodos" style="ellipse;whiteSpace=wrap;html=1;fontSize=10;" vertex="1" parent="1">
          <mxGeometry x="125" y="670" width="90" height="35" as="geometry" />
        </mxCell>
        <mxCell id="wzijG_nmXU8VHVW60wZD-77" style="edgeStyle=orthogonalEdgeStyle;rounded=0;orthogonalLoop=1;jettySize=auto;html=1;exitX=0.5;exitY=0;exitDx=0;exitDy=0;labelBorderColor=none;startArrow=classic;startFill=0;endArrow=none;" edge="1" parent="1" source="wzijG_nmXU8VHVW60wZD-64">
          <mxGeometry relative="1" as="geometry">
            <mxPoint x="100" y="650" as="targetPoint" />
            <Array as="points">
              <mxPoint x="20" y="770" />
              <mxPoint x="100" y="770" />
            </Array>
          </mxGeometry>
        </mxCell>
        <mxCell id="wzijG_nmXU8VHVW60wZD-79" style="edgeStyle=orthogonalEdgeStyle;rounded=0;orthogonalLoop=1;jettySize=auto;html=1;exitX=0.5;exitY=1;exitDx=0;exitDy=0;entryX=0.5;entryY=0;entryDx=0;entryDy=0;" edge="1" parent="1" source="wzijG_nmXU8VHVW60wZD-64" target="wzijG_nmXU8VHVW60wZD-78">
          <mxGeometry relative="1" as="geometry" />
        </mxCell>
        <mxCell id="wzijG_nmXU8VHVW60wZD-64" value="Relaciones" style="ellipse;whiteSpace=wrap;html=1;fontSize=10;" vertex="1" parent="1">
          <mxGeometry x="-25" y="795" width="90" height="35" as="geometry" />
        </mxCell>
        <mxCell id="wzijG_nmXU8VHVW60wZD-67" value="Son las características que conforman a la clase" style="rounded=0;whiteSpace=wrap;html=1;fontSize=10;fontFamily=Times New Roman;" vertex="1" parent="1">
          <mxGeometry x="-40" y="720" width="120" height="30" as="geometry" />
        </mxCell>
        <mxCell id="wzijG_nmXU8VHVW60wZD-71" style="edgeStyle=orthogonalEdgeStyle;rounded=0;orthogonalLoop=1;jettySize=auto;html=1;exitX=0.5;exitY=1;exitDx=0;exitDy=0;entryX=0.5;entryY=0;entryDx=0;entryDy=0;" edge="1" parent="1" source="wzijG_nmXU8VHVW60wZD-68" target="wzijG_nmXU8VHVW60wZD-70">
          <mxGeometry relative="1" as="geometry" />
        </mxCell>
        <mxCell id="wzijG_nmXU8VHVW60wZD-68" value="Clases" style="ellipse;whiteSpace=wrap;html=1;fontSize=10;" vertex="1" parent="1">
          <mxGeometry x="265" y="562.5" width="90" height="35" as="geometry" />
        </mxCell>
        <mxCell id="wzijG_nmXU8VHVW60wZD-70" value="Son el elemento principal del diagrama y representa, como su nombre indica, una clase dentro del paradigma de la orientación a objetos. Una clase define un grupo de objetos que comparten características, condiciones y significado." style="rounded=0;whiteSpace=wrap;html=1;fontSize=10;fontFamily=Times New Roman;" vertex="1" parent="1">
          <mxGeometry x="240" y="610" width="140" height="110" as="geometry" />
        </mxCell>
        <mxCell id="wzijG_nmXU8VHVW60wZD-76" value="Son una serie de instrucciones para lograr que la clase logre una acción específica" style="rounded=0;whiteSpace=wrap;html=1;fontSize=10;fontFamily=Times New Roman;" vertex="1" parent="1">
          <mxGeometry x="125" y="750" width="140" height="45" as="geometry" />
        </mxCell>
        <mxCell id="wzijG_nmXU8VHVW60wZD-93" style="edgeStyle=orthogonalEdgeStyle;rounded=0;orthogonalLoop=1;jettySize=auto;html=1;exitX=0;exitY=0.5;exitDx=0;exitDy=0;entryX=1;entryY=0.5;entryDx=0;entryDy=0;" edge="1" parent="1" source="wzijG_nmXU8VHVW60wZD-78" target="wzijG_nmXU8VHVW60wZD-80">
          <mxGeometry relative="1" as="geometry" />
        </mxCell>
        <mxCell id="wzijG_nmXU8VHVW60wZD-94" style="edgeStyle=orthogonalEdgeStyle;rounded=0;orthogonalLoop=1;jettySize=auto;html=1;exitX=1;exitY=0.5;exitDx=0;exitDy=0;entryX=0;entryY=0.5;entryDx=0;entryDy=0;" edge="1" parent="1" source="wzijG_nmXU8VHVW60wZD-78" target="wzijG_nmXU8VHVW60wZD-83">
          <mxGeometry relative="1" as="geometry" />
        </mxCell>
        <mxCell id="wzijG_nmXU8VHVW60wZD-95" style="edgeStyle=orthogonalEdgeStyle;rounded=0;orthogonalLoop=1;jettySize=auto;html=1;exitX=0.25;exitY=1;exitDx=0;exitDy=0;entryX=0.5;entryY=0;entryDx=0;entryDy=0;" edge="1" parent="1" source="wzijG_nmXU8VHVW60wZD-78" target="wzijG_nmXU8VHVW60wZD-81">
          <mxGeometry relative="1" as="geometry" />
        </mxCell>
        <mxCell id="wzijG_nmXU8VHVW60wZD-96" style="edgeStyle=orthogonalEdgeStyle;rounded=0;orthogonalLoop=1;jettySize=auto;html=1;exitX=0.75;exitY=1;exitDx=0;exitDy=0;entryX=0.5;entryY=0;entryDx=0;entryDy=0;" edge="1" parent="1" source="wzijG_nmXU8VHVW60wZD-78" target="wzijG_nmXU8VHVW60wZD-82">
          <mxGeometry relative="1" as="geometry" />
        </mxCell>
        <mxCell id="wzijG_nmXU8VHVW60wZD-78" value="Son una serie de instrucciones para lograr que la clase logre una acción específica" style="rounded=0;whiteSpace=wrap;html=1;fontSize=10;fontFamily=Times New Roman;" vertex="1" parent="1">
          <mxGeometry x="-50" y="860" width="140" height="45" as="geometry" />
        </mxCell>
        <mxCell id="wzijG_nmXU8VHVW60wZD-89" style="edgeStyle=orthogonalEdgeStyle;rounded=0;orthogonalLoop=1;jettySize=auto;html=1;exitX=0;exitY=0.5;exitDx=0;exitDy=0;entryX=0.5;entryY=0;entryDx=0;entryDy=0;" edge="1" parent="1" source="wzijG_nmXU8VHVW60wZD-80" target="wzijG_nmXU8VHVW60wZD-87">
          <mxGeometry relative="1" as="geometry" />
        </mxCell>
        <mxCell id="wzijG_nmXU8VHVW60wZD-80" value="Asociacion" style="ellipse;whiteSpace=wrap;html=1;aspect=fixed;fontSize=10;" vertex="1" parent="1">
          <mxGeometry x="-140" y="854" width="57" height="57" as="geometry" />
        </mxCell>
        <mxCell id="wzijG_nmXU8VHVW60wZD-90" style="edgeStyle=orthogonalEdgeStyle;rounded=0;orthogonalLoop=1;jettySize=auto;html=1;exitX=0;exitY=0.5;exitDx=0;exitDy=0;entryX=0.5;entryY=0;entryDx=0;entryDy=0;" edge="1" parent="1" source="wzijG_nmXU8VHVW60wZD-81" target="wzijG_nmXU8VHVW60wZD-86">
          <mxGeometry relative="1" as="geometry">
            <Array as="points">
              <mxPoint x="-63" y="969" />
            </Array>
          </mxGeometry>
        </mxCell>
        <mxCell id="wzijG_nmXU8VHVW60wZD-81" value="Herencia" style="ellipse;whiteSpace=wrap;html=1;aspect=fixed;fontSize=10;" vertex="1" parent="1">
          <mxGeometry x="-50" y="940" width="57" height="57" as="geometry" />
        </mxCell>
        <mxCell id="wzijG_nmXU8VHVW60wZD-91" style="edgeStyle=orthogonalEdgeStyle;rounded=0;orthogonalLoop=1;jettySize=auto;html=1;exitX=1;exitY=0.5;exitDx=0;exitDy=0;entryX=0.5;entryY=0;entryDx=0;entryDy=0;" edge="1" parent="1" source="wzijG_nmXU8VHVW60wZD-82" target="wzijG_nmXU8VHVW60wZD-85">
          <mxGeometry relative="1" as="geometry">
            <Array as="points">
              <mxPoint x="96" y="969" />
              <mxPoint x="96" y="1017" />
            </Array>
          </mxGeometry>
        </mxCell>
        <mxCell id="wzijG_nmXU8VHVW60wZD-82" value="Agregacion" style="ellipse;whiteSpace=wrap;html=1;aspect=fixed;fontSize=10;" vertex="1" parent="1">
          <mxGeometry x="33" y="940" width="57" height="57" as="geometry" />
        </mxCell>
        <mxCell id="wzijG_nmXU8VHVW60wZD-92" style="edgeStyle=orthogonalEdgeStyle;rounded=0;orthogonalLoop=1;jettySize=auto;html=1;exitX=1;exitY=0.5;exitDx=0;exitDy=0;entryX=0.5;entryY=0;entryDx=0;entryDy=0;" edge="1" parent="1" source="wzijG_nmXU8VHVW60wZD-83" target="wzijG_nmXU8VHVW60wZD-84">
          <mxGeometry relative="1" as="geometry" />
        </mxCell>
        <mxCell id="wzijG_nmXU8VHVW60wZD-83" value="Composicion" style="ellipse;whiteSpace=wrap;html=1;aspect=fixed;fontSize=10;" vertex="1" parent="1">
          <mxGeometry x="125" y="854" width="57" height="57" as="geometry" />
        </mxCell>
        <mxCell id="wzijG_nmXU8VHVW60wZD-84" value="Similar a la agregación, representa una relación jerárquica entre un objeto y las partes que lo componen, pero de una forma más fuerte. Además, suelen tener los mismos tiempo de vida." style="rounded=0;whiteSpace=wrap;html=1;fontSize=10;fontFamily=Times New Roman;" vertex="1" parent="1">
          <mxGeometry x="160" y="928.5" width="140" height="81.5" as="geometry" />
        </mxCell>
        <mxCell id="wzijG_nmXU8VHVW60wZD-85" value="Es una representación jerárquica que representa relaciones en las que un objeto es parte de otro, pero aun así debe tener existencia en sí mismo." style="rounded=0;whiteSpace=wrap;html=1;fontSize=10;fontFamily=Times New Roman;" vertex="1" parent="1">
          <mxGeometry x="33" y="1025" width="125" height="80" as="geometry" />
        </mxCell>
        <mxCell id="wzijG_nmXU8VHVW60wZD-86" value="Este tipo de relaciones permiten que una clase (clase hija o subclase) reciba los atributos y métodos de otra clase (clase padre o superclase). Estos atributos y métodos recibidos se suman a los que la clase tiene por sí misma." style="rounded=0;whiteSpace=wrap;html=1;fontSize=10;fontFamily=Times New Roman;" vertex="1" parent="1">
          <mxGeometry x="-133" y="1025" width="140" height="90" as="geometry" />
        </mxCell>
        <mxCell id="wzijG_nmXU8VHVW60wZD-87" value="Es el más común y se utiliza para representar dependencia semántica. Se representa con una simple línea continua que une las clases que están incluidas en la asociación." style="rounded=0;whiteSpace=wrap;html=1;fontSize=10;fontFamily=Times New Roman;" vertex="1" parent="1">
          <mxGeometry x="-240" y="928.5" width="120" height="80" as="geometry" />
        </mxCell>
        <mxCell id="wzijG_nmXU8VHVW60wZD-98" style="edgeStyle=orthogonalEdgeStyle;rounded=0;orthogonalLoop=1;jettySize=auto;html=1;exitX=0;exitY=0.5;exitDx=0;exitDy=0;entryX=1;entryY=0.5;entryDx=0;entryDy=0;" edge="1" parent="1" source="wzijG_nmXU8VHVW60wZD-102" target="wzijG_nmXU8VHVW60wZD-103">
          <mxGeometry relative="1" as="geometry" />
        </mxCell>
        <mxCell id="wzijG_nmXU8VHVW60wZD-99" style="edgeStyle=orthogonalEdgeStyle;rounded=0;orthogonalLoop=1;jettySize=auto;html=1;exitX=0.056;exitY=1.027;exitDx=0;exitDy=0;entryX=0.5;entryY=0;entryDx=0;entryDy=0;exitPerimeter=0;" edge="1" parent="1" source="wzijG_nmXU8VHVW60wZD-102" target="wzijG_nmXU8VHVW60wZD-105">
          <mxGeometry relative="1" as="geometry">
            <Array as="points">
              <mxPoint x="697" y="650" />
              <mxPoint x="605" y="650" />
            </Array>
          </mxGeometry>
        </mxCell>
        <mxCell id="wzijG_nmXU8VHVW60wZD-100" style="edgeStyle=orthogonalEdgeStyle;rounded=0;orthogonalLoop=1;jettySize=auto;html=1;exitX=1;exitY=0.5;exitDx=0;exitDy=0;entryX=0;entryY=0.5;entryDx=0;entryDy=0;" edge="1" parent="1" source="wzijG_nmXU8VHVW60wZD-102" target="wzijG_nmXU8VHVW60wZD-113">
          <mxGeometry relative="1" as="geometry" />
        </mxCell>
        <mxCell id="wzijG_nmXU8VHVW60wZD-101" style="edgeStyle=orthogonalEdgeStyle;rounded=0;orthogonalLoop=1;jettySize=auto;html=1;exitX=0.5;exitY=1;exitDx=0;exitDy=0;entryX=0.5;entryY=0;entryDx=0;entryDy=0;" edge="1" parent="1" source="wzijG_nmXU8VHVW60wZD-102" target="wzijG_nmXU8VHVW60wZD-107">
          <mxGeometry relative="1" as="geometry" />
        </mxCell>
        <mxCell id="wzijG_nmXU8VHVW60wZD-102" value="De casos de uso" style="rounded=1;whiteSpace=wrap;html=1;" vertex="1" parent="1">
          <mxGeometry x="690" y="550" width="120" height="60" as="geometry" />
        </mxCell>
        <mxCell id="wzijG_nmXU8VHVW60wZD-103" value="El diagrama de casos de uso muestra la relación entre un actor y sus requisitos o expectativas del sistema, sin representar las acciones que tienen lugar o ponerlas en un orden lógico." style="rounded=0;whiteSpace=wrap;html=1;fontSize=10;fontFamily=Times New Roman;" vertex="1" parent="1">
          <mxGeometry x="490" y="525" width="130" height="110" as="geometry" />
        </mxCell>
        <mxCell id="wzijG_nmXU8VHVW60wZD-104" style="edgeStyle=orthogonalEdgeStyle;rounded=0;orthogonalLoop=1;jettySize=auto;html=1;exitX=0.5;exitY=1;exitDx=0;exitDy=0;entryX=0.5;entryY=0;entryDx=0;entryDy=0;" edge="1" parent="1" source="wzijG_nmXU8VHVW60wZD-105" target="wzijG_nmXU8VHVW60wZD-111">
          <mxGeometry relative="1" as="geometry">
            <mxPoint x="884.9090909090908" y="620" as="targetPoint" />
          </mxGeometry>
        </mxCell>
        <mxCell id="wzijG_nmXU8VHVW60wZD-105" value="Sistema" style="ellipse;whiteSpace=wrap;html=1;" vertex="1" parent="1">
          <mxGeometry x="560" y="670" width="90" height="35" as="geometry" />
        </mxCell>
        <mxCell id="wzijG_nmXU8VHVW60wZD-106" style="edgeStyle=orthogonalEdgeStyle;rounded=0;orthogonalLoop=1;jettySize=auto;html=1;exitX=0.5;exitY=1;exitDx=0;exitDy=0;entryX=0.5;entryY=0;entryDx=0;entryDy=0;" edge="1" parent="1" source="wzijG_nmXU8VHVW60wZD-107" target="wzijG_nmXU8VHVW60wZD-115">
          <mxGeometry relative="1" as="geometry">
            <mxPoint x="750.3636363636363" y="750" as="targetPoint" />
          </mxGeometry>
        </mxCell>
        <mxCell id="wzijG_nmXU8VHVW60wZD-107" value="Caso de uso" style="ellipse;whiteSpace=wrap;html=1;fontSize=10;" vertex="1" parent="1">
          <mxGeometry x="705" y="670" width="90" height="35" as="geometry" />
        </mxCell>
        <mxCell id="wzijG_nmXU8VHVW60wZD-108" style="edgeStyle=orthogonalEdgeStyle;rounded=0;orthogonalLoop=1;jettySize=auto;html=1;exitX=0.5;exitY=0;exitDx=0;exitDy=0;labelBorderColor=none;startArrow=classic;startFill=0;endArrow=none;" edge="1" parent="1" source="wzijG_nmXU8VHVW60wZD-110">
          <mxGeometry relative="1" as="geometry">
            <mxPoint x="680" y="650" as="targetPoint" />
            <Array as="points">
              <mxPoint x="600" y="770" />
              <mxPoint x="680" y="770" />
            </Array>
          </mxGeometry>
        </mxCell>
        <mxCell id="wzijG_nmXU8VHVW60wZD-109" style="edgeStyle=orthogonalEdgeStyle;rounded=0;orthogonalLoop=1;jettySize=auto;html=1;exitX=0.5;exitY=1;exitDx=0;exitDy=0;entryX=0.5;entryY=0;entryDx=0;entryDy=0;" edge="1" parent="1" source="wzijG_nmXU8VHVW60wZD-110" target="wzijG_nmXU8VHVW60wZD-120">
          <mxGeometry relative="1" as="geometry" />
        </mxCell>
        <mxCell id="wzijG_nmXU8VHVW60wZD-110" value="Relaciones" style="ellipse;whiteSpace=wrap;html=1;fontSize=10;" vertex="1" parent="1">
          <mxGeometry x="555" y="795" width="90" height="35" as="geometry" />
        </mxCell>
        <mxCell id="wzijG_nmXU8VHVW60wZD-111" value="El sistema al que se refiere el caso de uso tiene forma de rectángulo." style="rounded=0;whiteSpace=wrap;html=1;fontSize=10;fontFamily=Times New Roman;" vertex="1" parent="1">
          <mxGeometry x="540" y="720" width="120" height="40" as="geometry" />
        </mxCell>
        <mxCell id="wzijG_nmXU8VHVW60wZD-112" style="edgeStyle=orthogonalEdgeStyle;rounded=0;orthogonalLoop=1;jettySize=auto;html=1;exitX=0.5;exitY=1;exitDx=0;exitDy=0;entryX=0.5;entryY=0;entryDx=0;entryDy=0;" edge="1" parent="1" source="wzijG_nmXU8VHVW60wZD-113" target="wzijG_nmXU8VHVW60wZD-114">
          <mxGeometry relative="1" as="geometry" />
        </mxCell>
        <mxCell id="wzijG_nmXU8VHVW60wZD-113" value="Actor" style="ellipse;whiteSpace=wrap;html=1;fontSize=10;" vertex="1" parent="1">
          <mxGeometry x="845" y="562.5" width="90" height="35" as="geometry" />
        </mxCell>
        <mxCell id="wzijG_nmXU8VHVW60wZD-114" value="Tanto si es una persona, como un sistema, se representa con el dibujo de una figura humana esquemática." style="rounded=0;whiteSpace=wrap;html=1;fontSize=10;fontFamily=Times New Roman;" vertex="1" parent="1">
          <mxGeometry x="820" y="610" width="140" height="110" as="geometry" />
        </mxCell>
        <mxCell id="wzijG_nmXU8VHVW60wZD-115" value="Se muestra como una elipse que suele incluir un texto describiendo brevemente el proceso." style="rounded=0;whiteSpace=wrap;html=1;fontSize=10;fontFamily=Times New Roman;" vertex="1" parent="1">
          <mxGeometry x="705" y="750" width="140" height="45" as="geometry" />
        </mxCell>
        <mxCell id="wzijG_nmXU8VHVW60wZD-116" style="edgeStyle=orthogonalEdgeStyle;rounded=0;orthogonalLoop=1;jettySize=auto;html=1;exitX=0;exitY=0.5;exitDx=0;exitDy=0;entryX=1;entryY=0.5;entryDx=0;entryDy=0;" edge="1" parent="1" source="wzijG_nmXU8VHVW60wZD-120" target="wzijG_nmXU8VHVW60wZD-122">
          <mxGeometry relative="1" as="geometry" />
        </mxCell>
        <mxCell id="wzijG_nmXU8VHVW60wZD-117" style="edgeStyle=orthogonalEdgeStyle;rounded=0;orthogonalLoop=1;jettySize=auto;html=1;exitX=1;exitY=0.5;exitDx=0;exitDy=0;entryX=0;entryY=0.5;entryDx=0;entryDy=0;" edge="1" parent="1" source="wzijG_nmXU8VHVW60wZD-120" target="wzijG_nmXU8VHVW60wZD-128">
          <mxGeometry relative="1" as="geometry" />
        </mxCell>
        <mxCell id="wzijG_nmXU8VHVW60wZD-118" style="edgeStyle=orthogonalEdgeStyle;rounded=0;orthogonalLoop=1;jettySize=auto;html=1;exitX=0.25;exitY=1;exitDx=0;exitDy=0;entryX=0.5;entryY=0;entryDx=0;entryDy=0;" edge="1" parent="1" source="wzijG_nmXU8VHVW60wZD-120" target="wzijG_nmXU8VHVW60wZD-124">
          <mxGeometry relative="1" as="geometry" />
        </mxCell>
        <mxCell id="wzijG_nmXU8VHVW60wZD-119" style="edgeStyle=orthogonalEdgeStyle;rounded=0;orthogonalLoop=1;jettySize=auto;html=1;exitX=0.75;exitY=1;exitDx=0;exitDy=0;entryX=0.5;entryY=0;entryDx=0;entryDy=0;" edge="1" parent="1" source="wzijG_nmXU8VHVW60wZD-120" target="wzijG_nmXU8VHVW60wZD-126">
          <mxGeometry relative="1" as="geometry" />
        </mxCell>
        <mxCell id="wzijG_nmXU8VHVW60wZD-120" value="Son asociaciones entre los casos&lt;br&gt;de uso y los actores o entre casos de uso." style="rounded=0;whiteSpace=wrap;html=1;fontSize=10;fontFamily=Times New Roman;" vertex="1" parent="1">
          <mxGeometry x="530" y="860" width="140" height="45" as="geometry" />
        </mxCell>
        <mxCell id="wzijG_nmXU8VHVW60wZD-121" style="edgeStyle=orthogonalEdgeStyle;rounded=0;orthogonalLoop=1;jettySize=auto;html=1;exitX=0;exitY=0.5;exitDx=0;exitDy=0;entryX=0.5;entryY=0;entryDx=0;entryDy=0;" edge="1" parent="1" source="wzijG_nmXU8VHVW60wZD-122" target="wzijG_nmXU8VHVW60wZD-132">
          <mxGeometry relative="1" as="geometry" />
        </mxCell>
        <mxCell id="wzijG_nmXU8VHVW60wZD-122" value="Asociacion" style="ellipse;whiteSpace=wrap;html=1;aspect=fixed;fontSize=10;" vertex="1" parent="1">
          <mxGeometry x="440" y="854" width="57" height="57" as="geometry" />
        </mxCell>
        <mxCell id="wzijG_nmXU8VHVW60wZD-123" style="edgeStyle=orthogonalEdgeStyle;rounded=0;orthogonalLoop=1;jettySize=auto;html=1;exitX=0;exitY=0.5;exitDx=0;exitDy=0;entryX=0.5;entryY=0;entryDx=0;entryDy=0;" edge="1" parent="1" source="wzijG_nmXU8VHVW60wZD-124" target="wzijG_nmXU8VHVW60wZD-131">
          <mxGeometry relative="1" as="geometry">
            <Array as="points">
              <mxPoint x="517" y="969" />
            </Array>
          </mxGeometry>
        </mxCell>
        <mxCell id="wzijG_nmXU8VHVW60wZD-124" value="Herencia" style="ellipse;whiteSpace=wrap;html=1;aspect=fixed;fontSize=10;" vertex="1" parent="1">
          <mxGeometry x="530" y="940" width="57" height="57" as="geometry" />
        </mxCell>
        <mxCell id="wzijG_nmXU8VHVW60wZD-125" style="edgeStyle=orthogonalEdgeStyle;rounded=0;orthogonalLoop=1;jettySize=auto;html=1;exitX=1;exitY=0.5;exitDx=0;exitDy=0;entryX=0.5;entryY=0;entryDx=0;entryDy=0;" edge="1" parent="1" source="wzijG_nmXU8VHVW60wZD-126" target="wzijG_nmXU8VHVW60wZD-130">
          <mxGeometry relative="1" as="geometry">
            <Array as="points">
              <mxPoint x="676" y="969" />
              <mxPoint x="676" y="1017" />
            </Array>
          </mxGeometry>
        </mxCell>
        <mxCell id="wzijG_nmXU8VHVW60wZD-126" value="Agregacion" style="ellipse;whiteSpace=wrap;html=1;aspect=fixed;fontSize=10;" vertex="1" parent="1">
          <mxGeometry x="613" y="940" width="57" height="57" as="geometry" />
        </mxCell>
        <mxCell id="wzijG_nmXU8VHVW60wZD-127" style="edgeStyle=orthogonalEdgeStyle;rounded=0;orthogonalLoop=1;jettySize=auto;html=1;exitX=1;exitY=0.5;exitDx=0;exitDy=0;entryX=0.5;entryY=0;entryDx=0;entryDy=0;" edge="1" parent="1" source="wzijG_nmXU8VHVW60wZD-128" target="wzijG_nmXU8VHVW60wZD-129">
          <mxGeometry relative="1" as="geometry" />
        </mxCell>
        <mxCell id="wzijG_nmXU8VHVW60wZD-128" value="Composicion" style="ellipse;whiteSpace=wrap;html=1;aspect=fixed;fontSize=10;" vertex="1" parent="1">
          <mxGeometry x="705" y="854" width="57" height="57" as="geometry" />
        </mxCell>
        <mxCell id="wzijG_nmXU8VHVW60wZD-129" value="Similar a la agregación, representa una relación jerárquica entre un objeto y las partes que lo componen, pero de una forma más fuerte. Además, suelen tener los mismos tiempo de vida." style="rounded=0;whiteSpace=wrap;html=1;fontSize=10;fontFamily=Times New Roman;" vertex="1" parent="1">
          <mxGeometry x="740" y="928.5" width="140" height="81.5" as="geometry" />
        </mxCell>
        <mxCell id="wzijG_nmXU8VHVW60wZD-130" value="Es una representación jerárquica que representa relaciones en las que un objeto es parte de otro, pero aun así debe tener existencia en sí mismo." style="rounded=0;whiteSpace=wrap;html=1;fontSize=10;fontFamily=Times New Roman;" vertex="1" parent="1">
          <mxGeometry x="613" y="1025" width="125" height="80" as="geometry" />
        </mxCell>
        <mxCell id="wzijG_nmXU8VHVW60wZD-131" value="Este tipo de relaciones permiten que una clase (clase hija o subclase) reciba los atributos y métodos de otra clase (clase padre o superclase). Estos atributos y métodos recibidos se suman a los que la clase tiene por sí misma." style="rounded=0;whiteSpace=wrap;html=1;fontSize=10;fontFamily=Times New Roman;" vertex="1" parent="1">
          <mxGeometry x="447" y="1025" width="140" height="90" as="geometry" />
        </mxCell>
        <mxCell id="wzijG_nmXU8VHVW60wZD-132" value="Es el más común y se utiliza para representar dependencia semántica. Se representa con una simple línea continua que une las clases que están incluidas en la asociación." style="rounded=0;whiteSpace=wrap;html=1;fontSize=10;fontFamily=Times New Roman;" vertex="1" parent="1">
          <mxGeometry x="340" y="928.5" width="120" height="80" as="geometry" />
        </mxCell>
      </root>
    </mxGraphModel>
  </diagram>
</mxfile>
